<?xml version="1.0" encoding="UTF-8" ?>
<!DOCTYPE svg PUBLIC "-//W3C//DTD SVG 1.1//EN" "http://www.w3.org/Graphics/SVG/1.1/DTD/svg11.dtd">
<svg width="53pt" height="78pt" viewBox="0 0 53 78" version="1.1" xmlns="http://www.w3.org/2000/svg">
<path fill="#ffffff" d=" M 0.00 0.00 L 49.50 0.00 C 47.48 1.72 46.94 4.42 45.47 6.52 C 41.01 11.92 39.61 19.44 34.18 24.12 C 30.49 22.41 26.73 18.68 22.41 20.71 C 23.00 21.30 23.60 21.89 24.21 22.46 C 26.91 21.71 29.59 22.67 31.22 24.90 C 29.10 24.81 27.11 24.08 25.21 23.19 C 25.48 25.79 27.71 26.00 29.78 26.16 C 30.87 27.31 32.35 28.24 33.00 29.73 C 32.19 31.33 30.91 32.60 29.74 33.93 C 28.42 33.96 27.09 33.99 25.77 34.03 C 25.87 36.07 27.05 37.73 28.17 39.34 C 26.52 38.88 25.21 37.77 23.93 36.69 C 23.95 34.81 23.91 32.93 24.16 31.08 C 25.76 30.64 26.63 32.31 27.75 33.10 C 28.21 32.52 29.12 31.36 29.57 30.77 C 27.34 30.29 25.08 29.88 22.81 29.57 C 22.88 32.04 22.94 34.52 22.94 37.00 C 23.58 37.98 24.22 38.96 24.86 39.94 C 24.31 40.21 23.20 40.76 22.64 41.03 C 22.57 42.39 22.57 43.75 22.63 45.10 C 23.53 46.54 25.05 47.43 26.31 48.52 C 26.59 47.94 27.15 46.79 27.43 46.21 C 30.46 46.16 33.34 45.34 35.98 43.87 C 37.64 39.76 37.12 35.21 36.09 31.02 C 36.56 28.88 37.64 26.95 38.49 24.95 C 38.89 25.27 39.68 25.91 40.08 26.23 C 39.80 25.25 39.53 24.28 39.25 23.31 C 39.76 23.22 40.79 23.05 41.31 22.96 C 40.41 22.21 39.52 21.46 38.63 20.71 C 39.67 20.75 40.71 20.78 41.75 20.76 C 42.71 16.19 46.64 12.99 47.36 8.31 C 49.15 6.49 50.89 4.63 52.55 2.69 C 52.50 2.02 52.40 0.67 52.35 0.00 L 53.00 0.00 L 53.00 78.00 L 8.93 78.00 C 11.55 75.64 12.13 71.86 14.67 69.51 C 14.57 69.22 14.36 68.63 14.26 68.33 C 14.68 67.94 15.54 67.16 15.96 66.78 C 16.04 66.21 16.18 65.08 16.26 64.52 C 17.69 62.67 19.05 60.77 20.41 58.86 C 21.92 58.85 23.36 58.34 24.79 57.93 C 30.37 61.16 36.56 57.42 42.16 56.13 C 44.53 52.80 47.72 50.15 49.87 46.65 C 51.53 41.77 51.22 36.45 50.65 31.40 C 49.19 27.70 47.81 23.27 44.29 21.04 C 43.97 21.09 43.34 21.21 43.02 21.27 C 44.56 25.28 49.31 28.25 48.88 33.22 C 46.65 29.58 45.62 24.67 41.19 22.98 C 44.03 27.73 47.76 32.30 48.21 38.04 C 48.12 40.29 47.29 42.41 46.67 44.55 C 44.70 46.34 43.29 48.59 41.64 50.65 C 39.68 52.15 37.32 53.06 35.44 54.71 C 33.01 55.06 30.58 55.46 28.18 56.01 C 26.23 55.28 24.24 54.54 22.66 53.14 C 23.63 52.15 24.61 51.22 25.59 50.25 C 24.98 49.62 24.36 48.99 23.74 48.37 C 23.42 48.71 22.77 49.39 22.45 49.73 C 22.51 47.35 23.03 44.44 20.97 42.68 C 18.60 42.18 16.16 42.51 13.76 42.38 C 14.86 41.60 16.17 41.23 17.46 40.86 C 16.59 39.22 14.78 40.48 13.49 40.60 C 11.91 41.26 10.44 40.09 8.96 39.67 C 8.84 37.38 8.99 35.01 10.90 33.45 C 10.97 35.36 10.99 37.28 10.99 39.20 C 13.56 37.78 16.43 37.41 19.31 37.84 C 18.91 35.92 17.21 34.85 15.79 33.70 C 16.49 33.26 17.90 32.40 18.61 31.96 C 17.92 31.73 16.56 31.27 15.87 31.04 C 18.19 29.81 21.62 31.42 23.13 28.81 C 23.70 27.21 23.71 25.46 22.56 24.11 C 22.31 25.73 22.09 27.35 21.89 28.97 C 19.59 28.99 17.29 29.00 14.98 29.00 C 14.99 31.15 15.37 33.39 14.56 35.44 C 13.48 32.61 12.95 29.62 12.78 26.60 C 13.33 27.15 14.44 28.25 15.00 28.80 C 15.58 27.83 16.15 26.85 16.71 25.87 C 16.70 28.02 18.44 28.17 20.17 28.17 C 20.30 26.57 19.87 25.06 19.07 23.69 C 17.30 24.42 15.49 25.09 13.65 25.65 C 15.97 23.52 18.77 21.53 22.12 22.52 C 22.06 22.00 21.95 20.96 21.89 20.45 C 18.83 20.68 15.91 21.64 13.30 23.23 C 12.38 25.84 10.03 27.40 8.10 29.22 C 9.51 29.64 10.70 28.87 11.88 28.22 C 11.75 29.32 11.62 30.42 11.50 31.52 C 11.01 31.58 10.02 31.70 9.53 31.76 C 9.44 31.16 9.25 29.95 9.16 29.35 C 3.90 34.06 4.81 41.52 5.26 47.84 C 5.64 53.54 9.22 59.22 14.54 61.46 C 12.25 65.87 9.83 70.23 7.13 74.39 C 6.97 75.60 6.80 76.80 6.61 78.00 L 0.00 78.00 L 0.00 0.00 Z" />
<path fill="#bea6a3" d=" M 49.50 0.00 L 52.35 0.00 C 52.40 0.67 52.50 2.02 52.55 2.69 C 50.89 4.63 49.15 6.49 47.36 8.31 C 46.64 12.99 42.71 16.19 41.75 20.76 C 40.71 20.78 39.67 20.75 38.63 20.71 C 39.52 21.46 40.41 22.21 41.31 22.96 C 40.79 23.05 39.76 23.22 39.25 23.31 C 39.53 24.28 39.80 25.25 40.08 26.23 C 39.68 25.91 38.89 25.27 38.49 24.95 C 37.64 26.95 36.56 28.88 36.09 31.02 C 37.12 35.21 37.64 39.76 35.98 43.87 C 33.34 45.34 30.46 46.16 27.43 46.21 C 27.15 46.79 26.59 47.94 26.31 48.52 C 25.05 47.43 23.53 46.54 22.63 45.10 C 22.57 43.75 22.57 42.39 22.64 41.03 C 23.20 40.76 24.31 40.21 24.86 39.94 C 24.22 38.96 23.58 37.98 22.94 37.00 C 22.94 34.52 22.88 32.04 22.81 29.57 C 25.08 29.88 27.34 30.29 29.57 30.77 C 29.12 31.36 28.21 32.52 27.75 33.10 C 26.63 32.31 25.76 30.64 24.16 31.08 C 23.91 32.93 23.95 34.81 23.93 36.69 C 25.21 37.77 26.52 38.88 28.17 39.34 C 27.05 37.73 25.87 36.07 25.77 34.03 C 27.09 33.99 28.42 33.96 29.74 33.93 C 30.91 32.60 32.19 31.33 33.00 29.73 C 32.35 28.24 30.87 27.31 29.78 26.16 C 27.71 26.00 25.48 25.79 25.21 23.19 C 27.11 24.08 29.10 24.81 31.22 24.90 C 29.59 22.67 26.91 21.71 24.21 22.46 C 23.60 21.89 23.00 21.30 22.41 20.71 C 26.73 18.68 30.49 22.41 34.18 24.12 C 39.61 19.44 41.01 11.92 45.47 6.52 C 46.94 4.42 47.48 1.72 49.50 0.00 Z" />
<path fill="#bea6a3" d=" M 37.18 11.27 C 37.80 11.77 37.80 11.77 37.18 11.27 Z" />
<path fill="#bea6a3" d=" M 13.30 23.23 C 15.91 21.64 18.83 20.68 21.89 20.45 C 21.95 20.96 22.06 22.00 22.12 22.52 C 18.77 21.53 15.97 23.52 13.65 25.65 C 15.49 25.09 17.30 24.42 19.07 23.69 C 19.87 25.06 20.30 26.57 20.17 28.17 C 18.44 28.17 16.70 28.02 16.71 25.87 C 16.15 26.85 15.58 27.83 15.00 28.80 C 14.44 28.25 13.33 27.15 12.78 26.60 C 12.95 29.62 13.48 32.61 14.56 35.44 C 15.37 33.39 14.99 31.15 14.98 29.00 C 17.29 29.00 19.59 28.99 21.89 28.97 C 22.09 27.35 22.31 25.73 22.56 24.11 C 23.71 25.46 23.70 27.21 23.13 28.81 C 21.62 31.42 18.19 29.81 15.87 31.04 C 16.56 31.27 17.92 31.73 18.61 31.96 C 17.90 32.40 16.49 33.26 15.79 33.70 C 17.21 34.85 18.91 35.92 19.31 37.84 C 16.43 37.41 13.56 37.78 10.99 39.20 C 10.99 37.28 10.97 35.36 10.90 33.45 C 8.99 35.01 8.84 37.38 8.96 39.67 C 10.44 40.09 11.91 41.26 13.49 40.60 C 14.78 40.48 16.59 39.22 17.46 40.86 C 16.17 41.23 14.86 41.60 13.76 42.38 C 16.16 42.51 18.60 42.18 20.97 42.68 C 23.03 44.44 22.51 47.35 22.45 49.73 C 22.77 49.39 23.42 48.71 23.74 48.37 C 24.36 48.99 24.98 49.62 25.59 50.25 C 24.61 51.22 23.63 52.15 22.66 53.14 C 24.24 54.54 26.23 55.28 28.18 56.01 C 30.58 55.46 33.01 55.06 35.44 54.71 C 37.32 53.06 39.68 52.15 41.64 50.65 C 43.29 48.59 44.70 46.34 46.67 44.55 C 47.29 42.41 48.12 40.29 48.21 38.04 C 47.76 32.30 44.03 27.73 41.19 22.98 C 45.62 24.67 46.65 29.58 48.88 33.22 C 49.31 28.25 44.56 25.28 43.02 21.27 C 43.34 21.21 43.97 21.09 44.29 21.04 C 47.81 23.27 49.19 27.70 50.65 31.40 C 51.22 36.45 51.53 41.77 49.87 46.65 C 47.72 50.15 44.53 52.80 42.16 56.13 C 36.56 57.42 30.37 61.16 24.79 57.93 C 23.36 58.34 21.92 58.85 20.41 58.86 C 19.05 60.77 17.69 62.67 16.26 64.52 C 16.18 65.08 16.04 66.21 15.96 66.78 C 15.54 67.16 14.68 67.94 14.26 68.33 C 14.36 68.63 14.57 69.22 14.67 69.51 C 12.13 71.86 11.55 75.64 8.93 78.00 L 6.61 78.00 C 6.80 76.80 6.97 75.60 7.13 74.39 C 9.83 70.23 12.25 65.87 14.54 61.46 C 9.22 59.22 5.64 53.54 5.26 47.84 C 4.81 41.52 3.90 34.06 9.16 29.35 C 9.25 29.95 9.44 31.16 9.53 31.76 C 10.02 31.70 11.01 31.58 11.50 31.52 C 11.62 30.42 11.75 29.32 11.88 28.22 C 10.70 28.87 9.51 29.64 8.10 29.22 C 10.03 27.40 12.38 25.84 13.30 23.23 Z" />
<path fill="#bea6a3" d=" M 24.28 24.00 C 25.31 24.72 25.96 27.33 25.76 28.74 C 23.68 29.12 23.70 25.34 24.28 24.00 Z" />
<path fill="#bea6a3" d=" M 50.19 25.24 C 50.78 25.79 50.78 25.79 50.19 25.24 Z" />
<path fill="#ffffff" d=" M 32.28 26.07 C 33.47 25.71 35.73 27.31 35.11 28.63 C 33.75 29.08 32.01 27.45 32.28 26.07 Z" />
<path fill="#bea6a3" d=" M 28.19 28.26 C 29.58 27.11 31.66 29.37 30.89 30.77 C 29.90 30.44 27.83 29.57 28.19 28.26 Z" />
<path fill="#bea6a3" d=" M 21.24 31.45 C 22.78 33.87 21.57 37.29 22.43 40.06 C 22.14 40.47 21.56 41.29 21.28 41.70 C 20.87 38.30 20.94 34.86 21.24 31.45 Z" />
<path fill="#ffffff" d=" M 27.04 35.66 C 29.91 35.71 31.55 33.40 33.69 31.92 C 36.41 34.93 37.11 40.89 33.11 43.12 C 30.92 44.38 27.88 42.78 25.99 44.72 C 26.84 42.27 28.07 39.98 29.68 37.95 C 28.77 37.22 27.89 36.46 27.04 35.66 Z" />
<path fill="#ffffff" d=" M 11.14 41.58 C 12.52 41.97 13.00 43.32 13.72 44.40 C 14.52 45.97 16.06 44.53 17.06 44.07 C 18.31 43.99 19.55 44.07 20.78 44.32 C 20.83 47.07 22.10 50.79 18.92 52.23 C 19.25 50.11 20.49 48.25 20.08 45.99 C 18.02 44.70 15.73 46.12 13.57 45.25 C 12.20 44.67 10.99 45.65 9.77 46.11 C 10.15 47.11 10.58 48.09 11.07 49.04 C 12.71 48.99 14.35 48.96 15.99 48.95 C 15.73 50.71 16.73 53.06 15.07 54.34 C 15.03 55.27 14.96 57.14 14.93 58.07 C 14.57 57.68 13.86 56.90 13.50 56.50 L 14.21 54.98 C 13.66 54.97 12.55 54.94 12.00 54.92 L 12.00 53.87 C 12.50 53.91 13.50 53.99 14.00 54.03 C 14.01 53.53 14.05 52.53 14.07 52.03 C 12.83 52.05 11.59 52.01 10.35 51.91 C 8.47 50.61 9.86 47.80 8.08 46.50 C 8.06 45.88 8.01 44.65 7.99 44.03 C 8.74 44.02 10.24 44.01 10.99 44.00 C 11.02 43.39 11.10 42.18 11.14 41.58 Z" />
<path fill="#ffffff" d=" M 24.08 42.23 C 27.22 42.47 22.63 45.42 24.08 42.23 Z" />
<path fill="#bea6a3" d=" M 44.21 43.36 C 44.88 43.79 44.88 43.79 44.21 43.36 Z" />
<path fill="#ffffff" d=" M 16.21 56.86 C 15.70 55.61 17.75 54.45 18.76 55.12 C 19.23 56.36 17.23 57.49 16.21 56.86 Z" />
<path fill="#bea6a3" d=" M 17.24 69.22 C 17.84 69.80 17.84 69.80 17.24 69.22 Z" />
</svg>
